<svg width="131" height="37" viewBox="0 0 131 37" fill="none" xmlns="http://www.w3.org/2000/svg">
<path d="M2.97027 18.8398C2.95927 20.5888 2.95428 22.2898 2.95828 23.7878H15.8413C15.8413 22.2878 15.8413 20.5878 15.8243 18.8398H2.97027Z" fill="#AFD180"/>
<path d="M3.04706 12.333C3.02706 13.857 3.00707 15.552 2.99207 17.28H15.8051C15.7891 15.552 15.7691 13.857 15.7481 12.333H3.04706Z" fill="#9FC866"/>
<path d="M14.406 3.22198H11.637V0.0479736C10.903 0.0169736 10.16 0 9.39402 0C8.62802 0 7.89403 0.0169736 7.15503 0.0479736V3.22198H4.38704V0.234009C3.18704 0.351009 2.05803 0.499017 1.01503 0.692017C1.01503 0.698017 0.998028 0.707971 0.998028 0.719971C0.982042 2.3553 1.14365 3.98757 1.48002 5.58801L3.13504 7.36499C3.13504 7.36499 3.11203 8.72197 3.08303 10.772H15.712C15.681 8.72197 15.657 7.36499 15.657 7.36499L17.31 5.58801C17.6456 3.98747 17.8069 2.35524 17.791 0.719971C17.7894 0.709179 17.7841 0.699326 17.776 0.692017C16.734 0.499017 15.6 0.351009 14.405 0.234009L14.406 3.22198Z" fill="#84B83B"/>
<path d="M3.13708 28.1008C5.17555 28.6654 7.28088 28.9523 9.39609 28.9538C11.5082 28.8942 13.6079 28.6082 15.6591 28.1008C15.8102 27.1897 15.8635 26.2651 15.8181 25.3428H2.97607C2.93172 26.2652 2.9857 27.1898 3.13708 28.1008Z" fill="#C4DDA1"/>
<path d="M30.808 7.97363H27.446V28.6286H30.808V7.97363Z" fill="white"/>
<path d="M46.968 7.54199C45.5086 7.59086 44.0732 7.9272 42.744 8.53174C41.4148 9.13628 40.218 9.99714 39.222 11.065V7.97296H35.817V28.628H39.222V13.764C41.374 11.729 43.447 10.44 45.913 10.44C48.536 10.44 49.708 11.729 49.708 14.466V28.629H53.074V13.729C53.074 9.813 50.92 7.54199 46.968 7.54199Z" fill="white"/>
<path d="M62.498 0.618164H59.1291V7.97217H55.5291V10.7502H59.1291V23.6191C59.1291 27.2191 60.5391 28.9031 64.8811 28.9031C65.8638 28.902 66.8448 28.8232 67.815 28.6672V25.8912C67.125 26.0711 66.4152 26.1639 65.7021 26.1672C63.2021 26.1672 62.4931 25.0672 62.4931 22.8802V10.7502H67.8531V7.97217H62.4931L62.498 0.618164Z" fill="white"/>
<path d="M79.3997 7.54102C75.0557 7.54102 70.0487 10.792 70.0487 18.3C70.0487 25.5 74.5087 29.059 79.3997 29.059C81.0608 29.1177 82.7088 28.7448 84.1829 27.9768C85.657 27.2088 86.9069 26.0719 87.8107 24.677L85.8557 22.955C85.2123 24.0191 84.2965 24.8922 83.2029 25.4841C82.1093 26.076 80.8775 26.3653 79.6347 26.322C76.2287 26.322 73.5347 23.815 73.4137 19.161H88.0047V18.461C88.0057 10.987 84.2897 7.54102 79.3997 7.54102ZM73.4917 16.541C73.9597 12.276 76.5817 10.359 79.3597 10.359C82.7597 10.359 84.5237 12.865 84.7987 16.541H73.4917Z" fill="white"/>
<path d="M99.154 7.54119C94.227 7.54119 90.744 10.6352 90.744 14.9752C90.7131 16.1559 90.989 17.3245 91.5446 18.3668C92.1002 19.4091 92.9165 20.2896 93.914 20.9222C92.425 21.7832 91.333 22.9152 91.333 24.2482C91.3167 24.8141 91.4775 25.3709 91.7928 25.8411C92.1081 26.3113 92.5623 26.6714 93.092 26.8712C90.785 27.7712 89.335 29.3312 89.335 31.4462C89.335 34.5762 92.349 36.5691 99.314 36.5691C105.299 36.5691 109.407 34.4962 109.407 30.5862C109.407 27.2592 106.746 25.5782 101.507 25.2252L97.28 24.8732C95.092 24.6732 94.426 24.2892 94.426 23.4292C94.426 22.7242 95.013 22.2162 95.872 21.8222C96.936 22.1552 98.044 22.3268 99.159 22.3312C103.973 22.3312 107.493 19.4372 107.493 14.9742C107.519 13.7068 107.15 12.4628 106.436 11.4152C107.626 10.9747 108.885 10.7492 110.154 10.7492V7.7752C108.392 8.00886 106.714 8.66739 105.263 9.69415C103.561 8.24929 101.386 7.48278 99.154 7.54119ZM95.516 27.5352C95.908 27.5772 96.3 27.6112 96.692 27.6522L100.603 27.9232C104.946 28.2402 106.316 29.0592 106.316 30.8972C106.316 32.7742 103.85 34.0282 99.743 34.0282C94.618 34.0282 92.465 33.0102 92.465 30.9372C92.469 29.5292 93.521 28.2402 95.516 27.5352ZM99.193 19.8652C96.026 19.8652 93.953 18.0292 93.953 15.0542C93.953 12.0792 95.948 10.1632 99.153 10.1632C102.48 10.1632 104.353 12.0412 104.353 15.0542C104.357 18.0292 102.369 19.8652 99.193 19.8652Z" fill="white"/>
<path d="M121.414 7.54199C116.328 7.54199 111.79 11.179 111.79 18.301C111.79 25.382 116.367 29.06 121.414 29.06C126.461 29.06 130.999 25.382 130.999 18.301C131 11.179 126.462 7.54199 121.414 7.54199ZM121.414 26.202C117.23 26.202 115.196 22.684 115.196 18.302C115.196 13.647 117.463 10.441 121.414 10.441C125.522 10.441 127.595 13.999 127.595 18.302C127.596 23.036 125.329 26.202 121.414 26.202Z" fill="white"/>
<path d="M30.89 1.9046C30.8898 2.25281 30.7864 2.59313 30.5928 2.88257C30.3993 3.17201 30.1242 3.39754 29.8025 3.5307C29.4808 3.66386 29.1268 3.69866 28.7852 3.63068C28.4437 3.5627 28.13 3.39502 27.8838 3.1488C27.6376 2.90258 27.4699 2.58888 27.4019 2.24738C27.334 1.90587 27.3687 1.5519 27.5019 1.23016C27.6351 0.908424 27.8606 0.633335 28.1501 0.439758C28.4395 0.246181 28.7798 0.142776 29.128 0.142578C29.5953 0.142578 30.0435 0.328191 30.374 0.65863C30.7044 0.989069 30.89 1.43729 30.89 1.9046Z" fill="white"/>
</svg>
